<?xml version="1.0" encoding="UTF-8" standalone="no"?>
<svg
   width="24px"
   height="24px"
   viewBox="0 0 24 24"
   version="1.1"
   id="svg7"
   sodipodi:docname="arrow_down_shadow.svg"
   inkscape:version="1.2 (dc2aedaf03, 2022-05-15)"
   xmlns:inkscape="http://www.inkscape.org/namespaces/inkscape"
   xmlns:sodipodi="http://sodipodi.sourceforge.net/DTD/sodipodi-0.dtd"
   xmlns="http://www.w3.org/2000/svg"
   xmlns:svg="http://www.w3.org/2000/svg"
   xmlns:rdf="http://www.w3.org/1999/02/22-rdf-syntax-ns#"
   xmlns:cc="http://creativecommons.org/ns#"
   xmlns:dc="http://purl.org/dc/elements/1.1/">
  <defs
     id="defs11" />
  <sodipodi:namedview
     id="namedview9"
     pagecolor="#ffffff"
     bordercolor="#000000"
     borderopacity="0.25"
     inkscape:showpageshadow="2"
     inkscape:pageopacity="0.0"
     inkscape:pagecheckerboard="0"
     inkscape:deskcolor="#d1d1d1"
     showgrid="false"
     inkscape:zoom="35.416667"
     inkscape:cx="12"
     inkscape:cy="12.014118"
     inkscape:window-width="1848"
     inkscape:window-height="1016"
     inkscape:window-x="72"
     inkscape:window-y="27"
     inkscape:window-maximized="1"
     inkscape:current-layer="Arrow---Down-2" />
  <title
     id="title2">Iconly/Two-tone/Arrow - Down 2</title>
  <g
     id="Iconly/Two-tone/Arrow---Down-2"
     stroke="none"
     stroke-width="1"
     fill="none"
     fill-rule="evenodd"
     stroke-linecap="round"
     stroke-linejoin="round">
    <g
       id="Arrow---Down-2"
       transform="translate(5.000000, 8.500000)"
       stroke="#000000"
       stroke-width="1.5">
      <path
         style="fill:#4d4d4d;stroke-width:0.0226479"
         d="M 5.025933,8.0842065 C 4.8606663,7.7938515 5.0940769,7.4485332 5.4386773,7.473574 c 0.066702,0.00485 0.1544468,0.030696 0.195504,0.057596 0.04097,0.026842 1.5471094,1.5246865 3.346979,3.328544 l 3.2724897,3.279742 0.02843,0.09487 c 0.01563,0.05218 0.02196,0.14278 0.01404,0.201346 -0.01313,0.09703 -0.02529,0.116383 -0.137064,0.218 -0.111659,0.101516 -0.132859,0.112342 -0.236138,0.120961 -0.06242,0.0051 -0.156914,-0.0052 -0.209997,-0.0232 -0.09549,-0.03226 -0.131268,-0.06737 -3.3641748,-3.301455 C 5.7119855,8.8122451 5.0704467,8.1624053 5.0259326,8.0842058 Z"
         id="path294"
         transform="translate(-5,-8.5)" />
      <path
         style="fill:#4d4d4d;stroke-width:0.0245991"
         d="m 14.383974,-0.05387346 c 0.314819,-0.17901701 0.687494,0.07688573 0.659008,0.45252364 -0.0055,0.0727064 -0.03383,0.16827685 -0.06311,0.2129339 -0.0292,0.0445631 -1.655893,1.68068762 -3.614858,3.63583502 L 7.8032567,7.8022335 7.7005028,7.8328454 C 7.6439811,7.8496751 7.5459326,7.8562085 7.4825989,7.8473341 7.3776702,7.8326229 7.3567797,7.8192856 7.2472862,7.696998 7.137902,7.5748368 7.1262741,7.5516773 7.1173663,7.4390316 7.1120647,7.3709505 7.1236417,7.267961 7.1433118,7.2101551 7.1786054,7.1061684 7.2167337,7.0673009 10.728931,3.55546 c 2.864563,-2.8642596 3.570252,-3.56111638 3.65504,-3.60933389 z"
         id="path294-3" />
      <polyline
         id="Stroke-1"
         points="14 0 7 7 0 0" />
    </g>
  </g>
  <metadata
     id="metadata505">
    <rdf:RDF>
      <cc:Work
         rdf:about="">
        <dc:title>Iconly/Two-tone/Arrow - Down 2</dc:title>
      </cc:Work>
    </rdf:RDF>
  </metadata>
</svg>
